<svg width="20" height="21" viewBox="0 0 20 21" fill="none" xmlns="http://www.w3.org/2000/svg">
<path fill-rule="evenodd" clip-rule="evenodd" d="M15.4166 4.78369V16.867C15.4166 17.5574 14.8569 18.117 14.1666 18.117H5.83325C5.1429 18.117 4.58325 17.5574 4.58325 16.867V4.78369" fill="#282828"/>
<path d="M15.4166 4.78369V16.867C15.4166 17.5574 14.8569 18.117 14.1666 18.117H5.83325C5.1429 18.117 4.58325 17.5574 4.58325 16.867V4.78369" stroke="#282828" stroke-width="1.2" stroke-linejoin="round"/>
<path d="M12.4998 15.2002V7.7002" stroke="white" stroke-width="1.2" stroke-linecap="round" stroke-linejoin="round"/>
<path d="M9.99984 15.2002V7.7002" stroke="white" stroke-width="1.2" stroke-linecap="round" stroke-linejoin="round"/>
<path d="M7.49984 15.2002V7.7002" stroke="white" stroke-width="1.2" stroke-linecap="round" stroke-linejoin="round"/>
<path d="M3.75 4.78353H16.25" stroke="#282828" stroke-width="1.2" stroke-linecap="round" stroke-linejoin="round"/>
<path d="M12.5 4.78369V3.95036C12.5 3.02988 11.7538 2.28369 10.8333 2.28369H9.16667C8.24619 2.28369 7.5 3.02988 7.5 3.95036V4.78369" stroke="#282828" stroke-width="1.2" stroke-linejoin="round"/>
</svg>
